<?xml version="1.0" encoding="utf-8"?>
<!-- Generator: Adobe Illustrator 22.1.0, SVG Export Plug-In . SVG Version: 6.00 Build 0)  -->
<svg version="1.1" id="Layer_1" xmlns="http://www.w3.org/2000/svg" xmlns:xlink="http://www.w3.org/1999/xlink" x="0px" y="0px"
	 viewBox="0 0 584.5 142.2" style="enable-background:new 0 0 584.5 142.2;" xml:space="preserve">
<style type="text/css">
	.st0{fill:#312D33;}
</style>
<title>logo_no_text</title>
<g id="Layer_2_1_">
	<g id="Layer_1-2">
		<path class="st0" d="M0,9.8l79.8,131.9c0,0,35.6-53.7,117.5-78.2s179.8-2.1,179.8-2.1s-73.4-29.8-201-16C64.3,57.5,0,9.8,0,9.8"/>
		<path class="st0" d="M134.6,40.1C99.4,39,61.7,29,61.7,29L44.5,0L134.6,40.1z"/>
		<path class="st0" d="M243.1,75.8c0,0,67,45.8,170.7,30.6c100.6-14.8,170.6,35.9,170.6,35.9S496.2,52.3,367.5,21.5
			c0,0,46.4,17,31.3,41.6C377.7,97.6,243.1,75.8,243.1,75.8"/>
	</g>
</g>
</svg>
